<?xml version="1.0" standalone="no"?>
<!DOCTYPE svg PUBLIC "-//W3C//DTD SVG 20010904//EN"
 "http://www.w3.org/TR/2001/REC-SVG-20010904/DTD/svg10.dtd">
<svg version="1.0" xmlns="http://www.w3.org/2000/svg"
 width="576.000000pt" height="564.000000pt" viewBox="0 0 576.000000 564.000000"
 preserveAspectRatio="xMidYMid meet">

<g transform="translate(0.000000,564.000000) scale(0.100000,-0.100000)"
fill="#000000" stroke="none">
<path d="M2545 5489 c-102 -17 -162 -28 -240 -44 -44 -9 -92 -19 -108 -22 -15
-3 -30 -9 -33 -14 -2 -5 -24 -6 -48 -3 -33 5 -44 3 -49 -9 -3 -8 -21 -18 -39
-22 -31 -7 -101 -38 -278 -123 -62 -29 -192 -102 -295 -165 -218 -133 -515
-399 -688 -617 -166 -209 -328 -495 -408 -720 -13 -36 -27 -66 -31 -68 -4 -2
-8 -13 -8 -24 0 -29 -22 -98 -29 -93 -4 2 -5 -12 -3 -31 2 -19 0 -40 -6 -47
-5 -6 -16 -50 -25 -97 -22 -122 -24 -131 -38 -175 -7 -25 -14 -154 -18 -339
-5 -238 -9 -300 -19 -304 -11 -3 -13 9 -8 59 9 96 8 122 -5 130 -8 5 -9 15 -2
35 11 34 5 124 -8 124 -5 0 -9 25 -9 55 0 30 4 55 9 55 5 0 12 28 15 63 3 34
6 69 7 77 1 8 1 31 0 50 -1 19 1 51 4 70 l5 35 -11 -30 c-7 -16 -16 -35 -21
-42 -5 -6 -12 -46 -15 -88 -5 -60 -3 -79 8 -87 11 -8 11 -9 -3 -4 -15 4 -16
-10 -11 -192 4 -108 6 -228 6 -265 -1 -59 2 -71 23 -94 13 -14 24 -34 24 -43
0 -10 8 -20 19 -23 17 -4 27 -32 34 -92 1 -11 6 -26 11 -33 4 -7 12 -45 17
-83 5 -38 18 -87 29 -108 11 -22 20 -49 20 -61 0 -11 5 -20 10 -20 6 0 10 -8
10 -17 0 -20 31 -107 60 -168 144 -305 238 -461 395 -654 184 -226 483 -480
745 -633 150 -88 181 -104 317 -164 70 -31 133 -60 139 -65 12 -9 124 -40 164
-45 14 -1 43 -8 65 -14 50 -14 100 -24 195 -39 41 -7 100 -17 130 -24 34 -7
156 -12 325 -12 297 0 367 8 655 71 36 8 84 19 107 24 91 20 471 162 508 190
6 4 51 29 102 55 50 25 97 53 104 61 6 8 20 14 30 14 11 0 19 4 19 8 0 5 12
14 26 21 15 6 46 27 69 46 23 19 50 35 59 35 10 0 14 4 11 10 -3 5 -1 10 5 10
6 0 18 7 27 15 8 8 19 13 24 10 14 -9 11 -32 -6 -39 -8 -3 -15 -11 -15 -17 0
-7 11 -2 25 11 14 13 25 29 25 37 0 7 7 13 16 13 11 0 14 -5 10 -16 -5 -14 -4
-15 9 -4 8 7 15 16 15 20 0 14 -31 20 -51 10 -26 -14 -24 -2 4 21 12 10 33 18
46 19 17 0 22 4 17 16 -3 8 -2 13 3 10 5 -3 12 5 15 19 6 23 18 28 61 28 6 0
10 12 10 26 0 19 6 27 23 29 22 3 32 22 11 22 -8 0 -8 5 1 15 7 8 17 15 22 15
6 0 8 -7 4 -15 -3 -8 -1 -15 4 -15 6 0 10 13 10 28 0 33 16 52 39 45 11 -3 12
-2 3 4 -20 15 40 67 67 58 17 -5 21 -2 21 15 0 12 -4 18 -10 15 -11 -7 -14 8
-4 18 7 7 28 -12 35 -30 3 -8 10 -7 24 4 18 14 18 15 1 9 -16 -5 -17 -2 -12
21 5 21 4 24 -4 13 -9 -13 -10 -13 -10 0 0 8 9 21 20 28 12 7 18 16 16 21 -7
11 49 82 58 73 4 -3 4 1 1 10 -4 9 0 18 9 21 10 4 16 1 16 -8 0 -18 16 -20 26
-3 4 6 0 16 -9 23 -14 10 -14 15 -2 38 7 14 22 36 33 47 19 21 21 21 31 3 10
-17 10 -16 11 5 0 12 -5 22 -11 22 -5 0 -7 5 -3 11 5 8 9 8 14 -1 10 -16 50 4
50 25 0 7 5 17 12 21 6 4 8 3 4 -4 -3 -6 -1 -14 5 -18 9 -5 10 1 5 22 -14 53
-16 93 -6 99 6 4 10 -10 10 -36 0 -36 2 -40 15 -29 9 7 14 19 11 26 -3 7 2 15
10 18 8 3 14 15 14 27 0 17 -3 19 -14 10 -22 -18 -41 11 -24 38 7 12 16 21 20
21 5 0 8 5 8 11 0 7 11 22 24 34 14 13 21 26 15 32 -5 5 -5 21 0 38 5 17 10
22 10 12 1 -10 6 -15 11 -12 6 4 10 14 9 23 -3 33 1 55 9 48 4 -4 8 -12 8 -17
3 -22 5 -23 13 -10 6 9 4 31 -4 58 -7 23 -9 43 -5 43 4 0 11 11 14 25 4 14 11
25 18 25 16 0 37 31 38 55 0 16 -2 17 -10 5 -20 -32 -21 2 -1 40 11 22 21 59
21 81 0 27 5 42 16 46 10 4 14 13 10 28 -3 13 -1 45 5 71 21 97 38 210 38 261
1 33 7 57 17 68 14 13 14 22 4 66 -9 35 -10 88 -5 170 4 65 3 124 -2 131 -4 7
-9 38 -10 68 -3 63 -8 97 -23 160 -6 25 -15 74 -19 110 -5 36 -17 91 -28 122
-11 33 -16 63 -11 70 4 7 8 23 8 34 0 12 7 25 16 28 8 3 13 10 9 16 -11 17
-43 -11 -37 -33 4 -14 2 -18 -7 -12 -8 4 -10 17 -7 31 4 14 2 24 -4 24 -5 0
-10 14 -10 30 0 17 -4 30 -10 30 -5 0 -12 11 -16 25 -3 14 -10 25 -15 25 -5 0
-9 15 -8 33 1 29 2 28 15 -11 2 -7 8 -10 14 -7 6 4 4 17 -6 36 -12 24 -13 34
-3 45 8 10 8 14 0 14 -6 0 -11 4 -11 10 0 5 7 7 15 4 11 -5 13 -2 9 10 -12 31
-34 9 -34 -34 0 -10 -4 -21 -8 -24 -5 -3 -6 8 -4 25 3 17 0 29 -7 29 -6 0 -11
7 -11 15 0 8 -4 15 -10 15 -5 0 -10 7 -10 16 0 11 -5 14 -16 10 -13 -5 -15 -1
-10 18 4 16 -1 32 -14 49 -11 14 -20 28 -20 32 0 4 -9 18 -20 32 -21 27 -28
89 -10 78 6 -4 10 -14 9 -23 -1 -10 3 -28 10 -42 10 -23 11 -21 6 15 -5 37 -4
39 10 21 8 -11 15 -23 15 -28 0 -4 5 -8 10 -8 6 0 10 7 10 16 0 8 -4 12 -10 9
-5 -3 -10 3 -10 15 0 11 -7 23 -15 26 -8 4 -15 15 -15 26 0 15 -3 18 -12 10
-16 -13 -53 15 -61 44 -4 16 -5 16 -6 2 -1 -19 -21 -26 -21 -8 0 6 -15 32 -34
59 -26 36 -32 51 -23 60 11 11 9 12 -15 15 -7 0 -12 21 -13 49 -1 26 -6 51
-10 55 -4 4 -6 -3 -3 -14 3 -12 2 -28 -3 -35 -7 -13 -23 0 -69 58 -14 17 -13
46 2 37 7 -4 8 -3 4 4 -4 7 -20 12 -36 12 -20 0 -31 6 -35 20 -3 11 -11 20
-16 20 -5 0 -9 10 -9 23 0 16 3 18 9 8 6 -9 11 -10 15 -3 4 6 14 8 22 5 14 -5
14 -3 3 16 -14 21 -49 29 -49 11 0 -5 -4 -10 -10 -10 -16 0 -12 30 5 36 8 4
15 10 15 15 0 5 -10 5 -22 0 -13 -5 -22 -16 -22 -24 1 -13 -4 -12 -27 5 -15
12 -26 25 -23 30 6 9 -19 38 -33 38 -12 0 -58 53 -55 63 1 4 -5 7 -15 7 -17 0
-20 3 -93 72 -54 52 -143 118 -158 118 -6 0 -15 6 -19 13 -4 6 -20 18 -35 26
-15 8 -38 24 -50 35 -12 12 -27 20 -32 18 -4 -2 -16 4 -26 13 -29 27 -234 134
-305 161 -27 10 -52 21 -55 24 -3 4 -18 12 -35 18 -178 64 -238 85 -285 97
-212 53 -271 65 -395 84 -118 18 -182 21 -415 20 -151 -1 -297 -5 -325 -10z
m120 -179 c4 -6 2 -16 -3 -23 -16 -18 23 -218 44 -234 19 -14 19 -15 -13 -32
-24 -12 -76 -15 -86 -4 -4 3 -2 12 4 19 8 10 8 31 -2 79 -7 36 -16 65 -20 65
-6 0 -22 -54 -34 -117 -10 -53 -38 -43 -87 33 -30 46 -44 60 -47 48 -5 -28 18
-121 35 -134 21 -19 17 -26 -23 -38 -47 -14 -54 -9 -47 37 8 49 -23 202 -44
219 -22 17 -4 32 45 39 39 5 41 4 79 -50 22 -30 44 -63 51 -73 10 -17 13 -17
22 -4 6 8 11 29 11 45 1 54 26 109 57 122 35 15 50 16 58 3z m289 -5 c13 -36
-23 -62 -42 -29 -6 10 -20 14 -43 12 -32 -3 -34 -5 -37 -46 -4 -47 16 -64 49
-44 33 21 49 15 49 -18 l0 -31 -48 7 -48 6 6 -53 c5 -53 6 -54 38 -57 23 -2
38 2 46 14 16 22 46 12 46 -15 0 -17 -10 -20 -105 -26 -57 -4 -112 -4 -122 0
-17 6 -17 7 0 19 14 11 17 29 17 117 -1 75 -5 109 -15 123 -8 10 -12 23 -9 27
3 5 52 9 109 9 82 0 104 -3 109 -15z m221 0 c57 -12 75 -20 98 -47 26 -30 28
-39 25 -99 -4 -69 -25 -110 -71 -136 -28 -16 -115 -15 -190 1 -57 12 -58 12
-39 30 15 13 22 36 27 89 3 40 8 89 11 109 3 20 0 39 -6 43 -5 3 -10 10 -10
16 0 13 75 11 155 -6z m312 -59 c3 -3 -3 -13 -14 -23 -28 -26 -70 -208 -52
-229 22 -26 -3 -37 -52 -23 -65 19 -71 26 -43 54 13 13 24 33 24 44 0 11 7 47
16 82 9 34 13 74 10 89 -3 15 -3 30 0 33 6 5 102 -18 111 -27z m215 -47 c68
-26 82 -40 74 -73 -7 -30 -34 -35 -42 -8 -16 52 -56 72 -103 52 -36 -14 -72
-85 -74 -145 -3 -59 21 -83 93 -94 30 -5 56 -14 58 -20 9 -26 48 -5 144 79 57
49 110 90 119 90 20 0 29 -62 29 -198 0 -95 10 -132 35 -132 18 0 128 168 129
197 1 35 12 36 60 8 49 -29 58 -49 27 -58 -26 -6 -135 -171 -128 -192 10 -24
55 -41 76 -28 28 18 44 1 30 -30 -6 -14 -17 -28 -24 -31 -7 -2 -55 24 -106 59
-52 35 -116 76 -144 90 -65 34 -72 42 -46 50 13 4 21 15 21 29 0 28 -11 37
-66 59 -39 15 -43 15 -63 -4 -11 -11 -21 -27 -21 -35 0 -18 -35 -11 -61 12 -8
8 -32 14 -53 14 -20 0 -62 12 -92 26 -94 44 -116 111 -70 211 24 50 44 68 95
84 39 11 46 11 103 -12z m-1581 -40 c16 -30 -1 -43 -35 -25 -47 24 -116 -15
-116 -66 0 -35 33 -114 58 -140 27 -29 84 -39 97 -18 12 19 -6 68 -26 73 -30
8 -23 25 19 42 58 25 78 24 74 -3 -2 -12 2 -38 8 -58 15 -43 4 -59 -58 -85
-89 -39 -172 -15 -216 61 -28 47 -27 126 1 166 45 64 170 98 194 53z m-318
-119 c-3 -12 17 -58 56 -125 85 -149 74 -162 -84 -95 -102 43 -120 48 -112 26
14 -35 59 -97 83 -113 l26 -17 -24 -18 c-32 -24 -68 -24 -61 1 6 25 -80 174
-118 204 l-30 23 33 18 33 18 100 -42 c55 -23 106 -44 114 -48 19 -7 10 16
-32 86 -19 31 -38 52 -49 52 -30 0 -20 18 20 39 42 22 52 20 45 -9z m-293
-172 c0 -35 110 -185 144 -197 32 -12 31 -15 -28 -54 -42 -28 -56 -27 -56 4 0
29 -120 189 -142 189 -10 0 -18 4 -18 8 0 16 71 71 93 72 4 0 7 -10 7 -22z
m1740 -56 c25 -6 86 -21 135 -33 297 -70 568 -204 815 -404 267 -216 502 -552
610 -870 48 -144 51 -152 60 -202 5 -27 17 -84 26 -128 24 -116 24 -519 0
-625 -9 -41 -21 -95 -25 -120 -23 -116 -91 -301 -169 -455 -193 -378 -523
-698 -914 -885 -177 -84 -323 -130 -573 -180 -88 -18 -434 -24 -530 -10 -44 6
-105 15 -135 20 -300 45 -669 212 -920 417 -92 74 -229 213 -305 308 -175 218
-269 404 -377 744 -6 19 -14 60 -19 90 -4 31 -13 85 -20 121 -15 81 -15 444
-1 525 6 33 16 87 22 120 35 207 154 493 283 685 93 139 131 184 257 311 167
168 311 274 506 373 184 93 370 157 539 187 33 6 80 15 105 19 67 12 576 6
630 -8z m-1870 -37 c18 -21 5 -48 -20 -40 -21 7 -69 -22 -70 -41 0 -5 13 -23
29 -38 34 -33 56 -30 71 9 8 22 13 24 30 15 31 -17 25 -46 -10 -53 -19 -4 -30
-13 -30 -24 0 -21 49 -73 69 -73 23 0 51 31 51 56 0 13 5 26 10 29 15 9 40
-13 40 -35 0 -18 -139 -140 -159 -140 -6 0 -11 9 -11 21 0 26 -139 179 -162
179 -29 0 -21 26 16 54 19 14 40 31 48 39 24 23 71 57 78 57 4 0 13 -7 20 -15z
m3230 -107 c18 -13 46 -39 62 -59 25 -31 28 -40 19 -58 -7 -12 -21 -21 -32
-21 -18 0 -20 4 -14 30 5 23 1 35 -19 55 -41 41 -100 29 -159 -32 -63 -67 -51
-134 31 -177 34 -18 41 -33 18 -42 -20 -8 -103 51 -127 89 -80 132 94 301 221
215z m-3406 -110 c9 -12 16 -35 16 -51 0 -27 2 -28 34 -24 37 5 69 -11 86 -43
15 -28 -16 -85 -81 -145 -47 -43 -54 -47 -57 -30 -6 32 -153 175 -179 175 -37
0 -27 23 36 83 49 47 66 57 95 57 25 0 39 -6 50 -22z m3615 -109 c65 -76 72
-92 42 -109 -23 -12 -37 3 -32 33 3 20 -25 57 -43 57 -6 0 -24 -12 -39 -26
-33 -28 -30 -48 8 -66 30 -13 32 -33 6 -48 -30 -15 -36 -13 -46 22 -6 17 -14
33 -20 34 -5 2 -27 -11 -48 -29 l-38 -33 21 -27 c13 -16 31 -27 45 -27 27 0
38 -12 29 -33 -15 -40 -39 -29 -112 50 -39 43 -71 82 -69 88 2 5 17 12 34 16
17 3 48 22 69 42 22 19 52 45 67 58 16 12 33 32 37 45 5 13 13 24 18 24 5 0
37 -32 71 -71z m-3709 -153 c0 -23 -49 -76 -65 -69 -20 7 -19 20 6 54 21 30
59 40 59 15z m3844 -11 c20 -30 20 -45 2 -87 -51 -118 -69 -168 -63 -174 10
-10 124 74 130 95 7 30 22 26 46 -13 27 -43 27 -46 -9 -46 -20 0 -59 -19 -113
-54 -101 -66 -119 -74 -134 -69 -24 9 -11 68 42 188 20 47 25 65 17 65 -19 0
-122 -73 -127 -90 -9 -29 -22 -25 -45 13 -25 40 -21 53 13 49 39 -5 195 94
204 129 7 26 17 24 37 -6z m-4115 -88 c9 -24 166 -127 192 -127 8 0 22 12 33
26 16 22 17 29 5 50 -19 36 0 48 34 21 l28 -22 -66 -100 c-36 -55 -87 -138
-112 -185 -25 -47 -52 -92 -59 -101 -8 -8 -14 -25 -14 -36 0 -11 -11 -46 -25
-77 -14 -31 -25 -62 -25 -69 0 -7 -7 -22 -15 -33 -14 -19 -15 -18 -37 8 -27
32 -155 82 -210 82 -42 0 -46 9 -24 59 7 18 21 52 31 77 10 25 25 52 32 60 11
12 16 12 35 -7 l22 -22 -27 -10 c-26 -10 -45 -50 -33 -70 8 -13 76 -35 84 -27
3 4 6 22 5 41 -1 27 3 35 17 35 10 0 23 -7 30 -15 10 -13 10 -19 -4 -33 -31
-36 -20 -56 48 -82 23 -8 28 -6 41 20 9 17 12 40 9 59 -6 28 -4 31 20 31 19 0
26 5 26 20 0 28 -190 123 -226 114 -30 -8 -30 -5 1 56 25 49 45 65 45 35 0
-17 15 -26 125 -76 44 -20 85 -35 91 -32 6 2 17 16 23 30 10 21 9 29 -5 44
-22 24 -8 42 27 35 52 -10 33 21 -39 68 -90 58 -123 73 -144 69 -11 -3 -18 1
-18 10 0 14 56 97 65 97 3 0 9 -10 14 -23z m4428 -12 c9 -24 -1 -27 -15 -5 -8
13 -8 20 -2 20 6 0 13 -7 17 -15z m-84 -299 c62 -125 63 -139 12 -148 -15 -2
-19 2 -18 17 1 11 4 31 5 45 3 28 -22 38 -56 22 -11 -6 -54 -25 -93 -43 -43
-19 -75 -39 -78 -50 -10 -32 -25 -21 -51 36 -13 31 -24 58 -24 61 0 3 13 3 30
-1 22 -5 51 4 122 35 51 23 95 44 97 46 2 1 1 15 -3 29 -5 18 -13 25 -31 25
-15 0 -25 6 -25 15 0 15 29 36 45 32 6 -2 36 -56 68 -121z m96 -223 c7 -27 17
-56 22 -65 5 -10 9 -35 9 -57 0 -31 -6 -44 -26 -60 -28 -22 -88 -28 -99 -11
-17 27 -65 -8 -101 -73 -14 -26 -14 -30 2 -48 9 -10 20 -17 23 -14 4 2 49 11
100 19 56 9 101 22 112 32 11 9 22 15 25 11 7 -7 36 -141 38 -177 1 -20 -4
-26 -26 -28 -32 -4 -32 -2 -17 32 6 13 9 36 5 51 -6 25 -9 26 -49 20 -56 -10
-70 -30 -42 -59 23 -23 18 -36 -14 -36 -26 0 -28 3 -27 38 l1 37 -45 -3 c-58
-4 -74 -19 -61 -56 6 -14 18 -29 26 -32 8 -4 15 -15 15 -25 0 -14 -7 -19 -29
-19 -28 0 -29 2 -41 68 -6 37 -20 104 -31 150 -22 92 -20 98 35 151 20 19 36
39 36 43 0 16 -58 7 -83 -12 l-26 -21 -16 37 c-25 60 -18 92 15 71 27 -16 217
38 225 64 11 34 32 20 44 -28z m-4743 -91 c7 -10 49 -40 95 -66 124 -71 153
-95 138 -112 -7 -9 -33 -14 -68 -15 -31 -1 -67 -4 -81 -8 -23 -6 -19 -10 48
-50 111 -67 103 -76 -70 -85 -86 -4 -145 -11 -149 -18 -4 -6 -12 -8 -18 -4
-11 7 -6 50 11 95 8 22 9 23 27 7 21 -19 117 -19 115 -1 0 6 -25 25 -55 43
-80 48 -74 65 29 76 51 5 81 13 79 20 -6 18 -101 66 -120 60 -23 -7 -33 20
-19 52 14 29 23 30 38 6z m68 -643 c20 -16 26 -29 26 -59 0 -30 -6 -43 -26
-59 -54 -43 -124 -10 -124 58 0 73 66 106 124 60z m4706 -9 c24 -24 26 -76 5
-107 -30 -43 -115 -31 -129 19 -17 66 10 108 69 108 22 0 43 -8 55 -20z
m-4562 -355 c2 -17 9 -36 15 -43 7 -10 6 -17 -6 -29 -20 -21 -47 -10 -47 19 0
13 -4 30 -9 37 -13 20 6 53 27 49 10 -2 18 -15 20 -33z m-153 2 c12 -7 35 -23
53 -36 35 -27 31 -44 -16 -56 -39 -10 -52 -24 -52 -58 0 -35 20 -109 32 -118
5 -3 40 1 79 10 63 13 71 13 86 -1 22 -22 11 -34 -44 -47 -111 -27 -116 -33
-84 -116 13 -35 27 -54 47 -64 69 -34 80 -41 89 -56 15 -24 -48 -75 -92 -75
-29 0 -33 3 -39 38 -3 20 -15 46 -25 57 -22 25 -58 107 -69 160 -5 22 -18 75
-29 118 -21 82 -26 223 -9 245 13 15 47 15 73 -1z m4697 -4 c19 -17 23 -43 9
-58 -5 -6 -11 -58 -14 -117 -5 -95 -4 -109 12 -120 48 -36 64 -95 35 -136 -22
-31 -34 -27 -34 11 0 17 -9 47 -20 65 -17 28 -25 32 -60 32 -50 0 -65 24 -31
50 15 11 26 34 32 66 5 27 12 56 14 65 3 10 -9 34 -30 59 -37 44 -43 68 -23
88 18 18 88 15 110 -5z m-5072 -54 c0 -10 -4 -19 -10 -19 -5 0 -10 12 -10 26
0 14 4 23 10 19 6 -3 10 -15 10 -26z m4801 -309 c14 -8 19 -21 19 -50 0 -45 3
-46 53 -25 46 19 91 19 107 0 17 -20 7 -63 -35 -160 -41 -93 -42 -102 -15
-130 12 -12 23 -38 26 -57 5 -30 1 -41 -25 -69 l-30 -34 -1 55 c0 67 -20 100
-59 100 -26 0 -51 16 -51 32 0 5 10 12 23 17 25 10 82 114 93 170 8 38 3 38
-33 5 -30 -28 -66 -26 -90 4 -12 17 -19 152 -7 152 3 0 14 -5 25 -10z m-4123
-222 c20 -20 15 -26 -48 -57 -33 -16 -67 -34 -75 -41 -15 -13 -16 -10 87 -197
13 -23 33 -47 45 -52 15 -7 22 -18 20 -33 -1 -15 8 -28 30 -42 18 -12 32 -27
33 -34 0 -7 11 -23 23 -35 13 -12 27 -33 30 -47 4 -14 32 -52 62 -85 l54 -60
51 53 c60 62 100 72 100 23 0 -22 -6 -32 -22 -37 -13 -4 -44 -26 -70 -49 -74
-66 -82 -65 -155 13 -34 37 -70 83 -79 102 -10 19 -25 41 -36 48 -10 7 -18 19
-18 26 0 7 -12 23 -26 37 -42 38 -92 117 -170 268 -61 116 -60 120 34 169 81
43 110 50 130 30z m4072 -88 c13 -24 8 -36 -20 -43 -26 -7 -47 27 -29 49 16
20 36 17 49 -6z m-94 -176 c63 -45 103 -89 91 -100 -10 -10 -176 87 -182 106
-7 22 1 40 16 40 6 0 40 -21 75 -46z m-84 -45 c7 -11 36 -38 65 -60 82 -62 83
-65 13 -158 l-61 -80 12 -59 c15 -70 10 -86 -33 -112 -51 -31 -63 -26 -39 14
12 18 21 48 21 65 0 29 -2 31 -26 25 -48 -12 -94 32 -94 91 0 30 39 43 80 28
25 -9 30 -7 56 25 43 52 64 85 64 99 0 6 -24 27 -54 45 -66 40 -87 74 -53 88
32 13 36 12 49 -11z m-3650 -34 c-8 -46 -52 -45 -52 0 0 23 4 26 28 23 21 -2
26 -8 24 -23z m-76 -20 c4 -16 13 -25 25 -25 21 0 22 -3 13 -38 -9 -31 -48
-26 -52 6 -2 12 -12 27 -23 32 -29 16 -25 50 6 50 18 0 26 -7 31 -25z m3429
-235 c3 -5 15 -10 26 -10 29 0 32 -21 11 -69 l-19 -42 -32 36 c-33 38 -39 63
-19 83 15 15 25 15 33 2z m-3128 -58 c16 -10 -54 -87 -116 -127 -75 -50 -66
-8 19 83 48 50 71 61 97 44z m3278 -33 c19 -17 35 -39 35 -49 0 -31 -270 -270
-305 -270 -35 0 -150 144 -139 173 11 28 27 20 84 -43 l55 -61 65 55 c36 30
88 75 115 99 l50 45 -22 24 c-54 58 0 81 62 27z m-3099 -81 c29 -5 26 -52 -4
-56 -17 -3 -25 2 -29 17 -3 11 -15 21 -27 23 -27 4 -35 44 -9 51 10 2 25 -4
34 -13 8 -10 24 -20 35 -22z m-46 -82 c0 -7 -7 -27 -15 -42 -26 -51 -19 -66
51 -114 36 -25 84 -59 108 -76 24 -18 54 -35 67 -39 l24 -7 -24 25 -24 26 28
11 c16 6 34 10 41 8 26 -6 133 -119 127 -133 -4 -11 13 -24 62 -46 37 -16 75
-29 84 -27 10 2 25 -3 34 -11 14 -11 23 -11 57 3 74 29 122 13 138 -47 7 -27
15 -33 67 -49 33 -9 61 -15 64 -12 3 3 14 37 26 77 17 61 24 73 44 75 23 4 24
2 18 -50 -3 -29 -9 -67 -12 -84 -7 -30 -5 -32 38 -43 25 -6 64 -11 86 -11 l40
0 7 71 c7 72 23 103 49 92 23 -8 28 -45 11 -78 -9 -17 -16 -44 -16 -61 0 -17
-5 -46 -11 -64 l-12 -33 -68 7 c-111 10 -254 41 -469 103 -30 8 -67 18 -82 20
-16 3 -28 8 -28 12 0 7 -18 15 -125 61 -54 23 -87 48 -80 60 9 14 -20 27 -74
33 -45 5 -71 18 -167 83 -105 70 -164 122 -164 145 0 5 -5 9 -12 9 -20 0 -48
32 -48 56 0 37 45 64 106 64 39 0 54 -4 54 -14z m2779 -127 c18 -6 38 -24 46
-40 15 -27 14 -29 -20 -55 -19 -14 -35 -31 -35 -37 0 -5 18 -27 40 -47 23 -22
40 -46 40 -59 0 -25 0 -25 -74 28 -55 39 -79 83 -65 118 6 17 5 23 -5 23 -23
0 -26 40 -5 61 22 22 34 23 78 8z m-250 -93 c26 -46 41 -86 41 -107 l-1 -34
-34 40 c-19 22 -35 44 -35 48 0 5 -11 23 -25 41 -28 36 -30 48 -14 77 14 27
22 20 68 -65z m761 40 c0 -3 -4 -8 -10 -11 -5 -3 -10 -1 -10 4 0 6 5 11 10 11
6 0 10 -2 10 -4z m-850 -46 c3 -19 18 -60 33 -90 15 -30 27 -61 27 -68 0 -27
-257 -132 -435 -178 -188 -48 -233 -57 -350 -70 l-120 -13 -30 -37 c-34 -42
-114 -84 -163 -84 -70 0 -119 92 -72 135 20 18 20 17 20 -14 0 -41 31 -56 93
-47 53 8 77 29 51 44 -12 7 -15 17 -10 36 6 23 11 26 53 26 58 0 214 18 273
31 25 6 55 20 68 32 22 20 25 21 36 6 11 -16 18 -15 89 4 42 11 77 25 77 31 0
6 -12 34 -25 61 -39 80 -30 123 20 91 15 -10 25 -26 25 -41 0 -13 5 -36 10
-50 l10 -26 26 30 c39 47 58 54 99 37 19 -8 35 -20 35 -25 0 -6 7 -11 15 -11
18 0 127 51 137 64 6 8 0 21 -47 102 -24 40 -14 66 22 62 23 -2 29 -9 33 -38z
m-506 -427 c9 -23 -17 -47 -43 -38 -23 7 -27 25 -9 43 17 17 45 15 52 -5z
m-374 -139 c21 -21 -43 -43 -107 -35 -13 1 -18 33 -8 43 10 9 104 3 115 -8z"/>
<path d="M3111 5213 c-20 -135 -20 -153 -2 -162 25 -14 69 -1 91 26 21 28 35
100 26 138 -9 34 -45 65 -77 65 -26 0 -28 -3 -38 -67z"/>
<path d="M3883 4971 c-30 -25 -29 -34 8 -48 35 -13 46 -1 35 42 -8 30 -14 30
-43 6z"/>
<path d="M1415 2893 c-53 -115 -106 -217 -116 -229 -24 -26 -16 -34 31 -34 44
0 54 8 34 27 -16 16 -12 38 16 87 17 31 17 31 113 33 109 2 119 -2 139 -68 10
-36 10 -42 -5 -51 -33 -18 -6 -28 74 -28 74 0 102 12 64 26 -15 6 -31 38 -151
294 -64 139 -71 150 -89 150 -7 0 -56 -93 -110 -207z m129 1 c20 -41 36 -79
36 -85 0 -5 -19 -10 -42 -11 -24 0 -55 -2 -71 -3 -15 -1 -34 3 -42 9 -13 9
-10 22 22 89 21 42 43 77 49 77 6 0 28 -34 48 -76z"/>
<path d="M1827 3094 c-3 -4 2 -14 13 -23 16 -14 19 -36 24 -199 l5 -182 -26
-28 -25 -27 168 -3 c152 -2 170 -1 182 15 18 25 11 77 -10 81 -13 3 -18 -3
-18 -21 0 -39 -21 -48 -102 -45 l-73 3 -3 198 -2 197 24 12 c14 6 23 15 20 19
-6 10 -167 12 -177 3z"/>
<path d="M2413 3094 c-7 -3 -3 -13 11 -27 21 -21 32 -51 78 -212 11 -38 26
-88 33 -110 7 -22 16 -57 20 -78 8 -50 34 -46 51 8 50 161 77 241 84 249 13
14 36 -32 75 -154 42 -129 57 -154 73 -123 6 11 38 102 72 203 64 195 80 230
108 230 15 0 15 2 2 10 -19 12 -97 13 -104 1 -3 -5 1 -11 9 -15 22 -8 19 -32
-21 -158 -35 -112 -47 -138 -60 -125 -4 4 -28 71 -54 149 -30 91 -53 144 -62
146 -15 3 -27 -25 -83 -196 -15 -46 -32 -81 -38 -79 -13 4 -54 133 -63 198 -5
34 -2 49 9 61 9 9 13 18 10 22 -7 7 -132 7 -150 0z"/>
<path d="M3050 3090 c-13 -8 -13 -10 1 -10 9 0 23 -8 32 -18 15 -16 17 -45 17
-200 0 -170 -1 -183 -20 -199 -11 -10 -20 -21 -20 -25 0 -9 301 -11 324 -2 22
8 22 74 1 74 -9 0 -20 -11 -25 -25 -7 -19 -17 -25 -42 -27 -49 -2 -101 1 -115
6 -17 7 -18 187 -1 204 9 9 9 15 0 24 -16 16 -16 160 0 176 15 15 92 16 119 2
10 -6 19 -17 19 -24 0 -17 30 -30 42 -18 5 5 8 22 6 38 l-3 29 -160 2 c-93 2
-166 -1 -175 -7z"/>
<path d="M3674 3088 c-6 -7 -29 -53 -52 -103 -112 -245 -151 -323 -161 -329
-22 -14 -10 -26 27 -26 47 0 55 7 37 33 -12 17 -11 25 8 64 25 51 34 54 147
51 l85 -3 24 -49 23 -50 -20 -17 c-12 -9 -18 -19 -15 -23 4 -3 42 -6 85 -6 60
0 78 3 78 14 0 8 -7 17 -16 20 -8 3 -47 72 -85 153 -131 281 -143 301 -165
271z m31 -188 c34 -68 43 -100 28 -100 -5 -1 -33 -3 -63 -5 -64 -5 -90 1 -90
21 0 22 69 154 80 154 5 0 26 -31 45 -70z"/>
<path d="M3985 3090 c-4 -7 1 -14 13 -17 25 -6 33 -75 29 -266 -2 -120 -4
-140 -19 -148 -32 -18 -19 -29 31 -29 54 0 70 10 46 30 -12 10 -15 44 -15 178
0 161 0 164 18 141 10 -13 34 -60 53 -104 49 -115 82 -178 96 -183 11 -3 122
212 147 283 16 44 26 -14 26 -151 0 -108 -3 -145 -15 -160 -8 -10 -15 -22 -15
-26 0 -11 138 -10 144 0 3 5 -4 16 -15 25 -17 15 -19 31 -19 189 0 192 3 215
31 223 36 12 8 25 -50 25 -35 0 -63 -5 -68 -12 -6 -7 -36 -73 -68 -145 -34
-78 -63 -133 -71 -133 -8 0 -14 4 -14 10 0 5 -11 33 -24 62 -14 29 -40 89 -59
133 l-34 80 -71 3 c-44 2 -73 -1 -77 -8z"/>
<path d="M3310 2905 c-7 -8 -28 -15 -46 -15 -19 0 -34 -4 -34 -10 0 -5 13 -10
28 -10 16 0 37 -9 47 -20 22 -24 35 -12 35 32 0 33 -13 43 -30 23z"/>
<path d="M3010 1954 c0 -8 5 -12 10 -9 6 3 10 10 10 16 0 5 -4 9 -10 9 -5 0
-10 -7 -10 -16z"/>
<path d="M3070 1820 c0 -5 4 -10 9 -10 6 0 13 5 16 10 3 6 -1 10 -9 10 -9 0
-16 -4 -16 -10z"/>
<path d="M1108 4519 c-24 -14 -23 -24 9 -54 33 -30 39 -31 52 -6 8 14 6 25
-10 45 -23 29 -26 30 -51 15z"/>
<path d="M1184 4419 c-10 -16 47 -70 71 -67 24 4 32 42 15 64 -14 16 -76 19
-86 3z"/>
<path d="M5210 3595 c-50 -13 -63 -37 -30 -55 35 -19 73 -9 84 23 13 37 0 45
-54 32z"/>
<path d="M2140 666 c0 -2 7 -6 15 -10 8 -3 15 -1 15 4 0 6 -7 10 -15 10 -8 0
-15 -2 -15 -4z"/>
<path d="M2108 5433 c7 -3 16 -2 19 1 4 3 -2 6 -13 5 -11 0 -14 -3 -6 -6z"/>
<path d="M2028 5423 c7 -3 16 -2 19 1 4 3 -2 6 -13 5 -11 0 -14 -3 -6 -6z"/>
<path d="M4620 4969 c0 -5 5 -7 10 -4 6 3 10 -4 11 -17 0 -22 1 -22 8 -3 5 11
7 23 4 28 -6 11 -33 8 -33 -4z"/>
<path d="M4670 4935 c-14 -16 -3 -20 19 -6 8 5 9 11 3 15 -5 3 -15 -1 -22 -9z"/>
<path d="M4680 4900 c0 -5 4 -10 9 -10 6 0 13 5 16 10 3 6 -1 10 -9 10 -9 0
-16 -4 -16 -10z"/>
<path d="M4752 4878 c4 -9 2 -20 -3 -25 -7 -7 0 -10 20 -9 38 1 38 5 4 30 -21
16 -25 16 -21 4z"/>
<path d="M4765 4820 c3 -5 8 -10 11 -10 2 0 4 5 4 10 0 6 -5 10 -11 10 -5 0
-7 -4 -4 -10z"/>
<path d="M4800 4800 c0 -12 28 -25 36 -17 3 3 -4 10 -15 17 -15 7 -21 7 -21 0z"/>
<path d="M4840 4760 c-13 -8 -13 -10 2 -10 9 0 20 5 23 10 8 13 -5 13 -25 0z"/>
<path d="M4878 4748 c-4 -10 -3 -18 2 -18 6 0 10 -7 10 -15 0 -17 9 -19 30 -5
13 8 11 11 -7 16 -12 3 -23 13 -25 23 -3 14 -4 14 -10 -1z"/>
<path d="M5005 4570 c3 -5 8 -10 11 -10 2 0 4 5 4 10 0 6 -5 10 -11 10 -5 0
-7 -4 -4 -10z"/>
<path d="M5100 4500 c-13 -8 -12 -10 3 -10 9 0 17 5 17 10 0 12 -1 12 -20 0z"/>
<path d="M5090 4459 c0 -5 5 -7 10 -4 6 3 10 8 10 11 0 2 -4 4 -10 4 -5 0 -10
-5 -10 -11z"/>
<path d="M5204 4362 c-15 -10 -25 -40 -15 -47 5 -3 14 9 20 25 11 33 11 33 -5
22z"/>
<path d="M5236 4304 c-8 -21 -8 -24 3 -24 12 0 22 28 12 35 -5 3 -12 -2 -15
-11z"/>
<path d="M5373 4065 c0 -14 3 -25 8 -25 5 0 9 11 9 25 0 14 -4 25 -9 25 -5 0
-8 -11 -8 -25z"/>
<path d="M5407 3954 c3 -7 9 -14 14 -14 14 0 10 17 -5 23 -10 4 -13 1 -9 -9z"/>
<path d="M5437 3944 c-4 -4 -7 -14 -7 -23 0 -11 3 -12 11 -4 6 6 10 16 7 23
-2 6 -7 8 -11 4z"/>
<path d="M5480 3836 c0 -8 5 -18 10 -21 6 -3 10 1 10 9 0 8 -4 18 -10 21 -5 3
-10 -1 -10 -9z"/>
<path d="M5506 3791 c-4 -7 -5 -15 -2 -18 9 -9 19 4 14 18 -4 11 -6 11 -12 0z"/>
<path d="M5480 3745 c0 -10 7 -15 18 -13 21 4 19 22 -2 26 -10 2 -16 -3 -16
-13z"/>
<path d="M5530 3723 c0 -12 -5 -23 -12 -25 -8 -3 -8 -9 -1 -22 9 -16 11 -13
17 19 4 20 5 40 2 43 -3 3 -6 -4 -6 -15z"/>
<path d="M5586 3494 c-6 -16 -9 -16 -17 -4 -9 12 -10 12 -5 -3 3 -10 6 -24 6
-30 0 -7 7 -4 14 6 11 14 15 15 19 5 4 -9 6 -9 6 2 0 8 -3 21 -8 28 -6 11 -10
10 -15 -4z"/>
<path d="M5611 3434 c0 -11 3 -14 6 -6 3 7 2 16 -1 19 -3 4 -6 -2 -5 -13z"/>
<path d="M5610 3380 c6 -11 12 -20 14 -20 2 0 2 9 -1 20 -3 11 -9 20 -15 20
-5 0 -4 -9 2 -20z"/>
<path d="M5631 3328 c0 -9 -5 -18 -10 -20 -6 -2 -6 -18 -2 -38 l8 -35 7 37 c5
20 6 44 3 55 -4 15 -5 15 -6 1z"/>
<path d="M5647 3233 c-3 -15 -8 -39 -12 -53 -5 -19 -4 -22 4 -10 9 13 11 11
11 -7 0 -12 -4 -23 -9 -25 -13 -4 -22 -58 -10 -58 5 0 9 10 10 23 l0 22 9 -21
c5 -12 14 -25 20 -29 9 -5 9 -2 2 11 -5 11 -10 52 -10 93 -1 79 -6 99 -15 54z"/>
<path d="M5662 2848 c-1 -42 -5 -85 -8 -95 -5 -17 -5 -17 6 -1 6 11 9 49 7 95
l-3 78 -2 -77z"/>
<path d="M5651 2578 c-1 -29 -17 -46 -23 -26 -3 7 -7 2 -10 -10 -4 -12 -2 -22
3 -22 5 0 9 -18 9 -39 0 -22 4 -43 10 -46 6 -3 7 1 4 9 -3 9 -2 16 4 16 14 0
20 52 11 102 -4 29 -7 34 -8 16z"/>
<path d="M177 2402 c8 -48 13 -54 13 -13 0 19 4 30 10 26 6 -3 10 0 10 7 0 8
-9 14 -19 15 -17 1 -19 -3 -14 -35z"/>
<path d="M5610 2334 c0 -22 -3 -26 -10 -14 -8 12 -10 11 -10 -7 0 -15 -6 -23
-17 -23 -15 0 -15 -2 -4 -9 8 -5 20 -7 27 -4 14 5 30 70 20 80 -3 4 -6 -7 -6
-23z"/>
<path d="M188 2325 c2 -14 6 -25 8 -25 2 0 4 11 4 25 0 14 -4 25 -9 25 -4 0
-6 -11 -3 -25z"/>
<path d="M211 2244 c0 -11 3 -14 6 -6 3 7 2 16 -1 19 -3 4 -6 -2 -5 -13z"/>
<path d="M5580 2223 c0 -18 5 -33 10 -33 13 0 13 30 0 50 -7 11 -10 7 -10 -17z"/>
<path d="M5552 2220 c0 -14 2 -19 5 -12 2 6 2 18 0 25 -3 6 -5 1 -5 -13z"/>
<path d="M5571 2158 c0 -9 -4 -25 -7 -35 -5 -17 -5 -17 6 0 6 10 9 25 7 35 -4
15 -5 15 -6 0z"/>
<path d="M5530 2055 c-6 -8 -9 -23 -5 -34 3 -11 0 -23 -7 -27 -6 -4 -14 -2
-16 5 -3 8 -8 6 -18 -6 -17 -22 -18 -41 -2 -25 17 17 28 15 28 -5 0 -27 26 26
34 70 8 40 5 45 -14 22z"/>
<path d="M301 1974 c0 -11 3 -14 6 -6 3 7 2 16 -1 19 -3 4 -6 -2 -5 -13z"/>
<path d="M5455 1841 c-3 -5 -1 -12 5 -16 5 -3 10 1 10 9 0 18 -6 21 -15 7z"/>
<path d="M5431 1804 c0 -11 3 -14 6 -6 3 7 2 16 -1 19 -3 4 -6 -2 -5 -13z"/>
<path d="M5405 1735 c-10 -19 -15 -40 -13 -47 3 -7 15 7 26 31 25 51 25 51 12
51 -5 0 -16 -16 -25 -35z"/>
<path d="M5255 1460 c-3 -5 -1 -10 4 -10 6 0 11 5 11 10 0 6 -2 10 -4 10 -3 0
-8 -4 -11 -10z"/>
<path d="M5190 1384 c0 -8 5 -12 10 -9 14 9 12 -8 -2 -25 -8 -10 -6 -9 5 1 11
9 15 22 11 32 -8 21 -24 22 -24 1z"/>
<path d="M5143 1313 c-15 -5 -18 -33 -4 -33 8 0 25 30 19 35 -2 1 -9 0 -15 -2z"/>
<path d="M4953 1096 c-9 -11 -8 -15 6 -19 14 -3 17 0 14 14 -6 22 -5 22 -20 5z"/>
<path d="M4847 953 c-12 -12 -7 -22 8 -17 8 4 15 10 15 15 0 11 -14 12 -23 2z"/>
<path d="M4815 910 c-3 -5 -2 -10 4 -10 5 0 13 5 16 10 3 6 2 10 -4 10 -5 0
-13 -4 -16 -10z"/>
<path d="M4748 873 c-10 -2 -18 -11 -18 -18 0 -25 17 -25 40 0 23 25 18 29
-22 18z"/>
<path d="M5227 724 c-61 -22 -104 -62 -132 -119 -58 -123 -7 -254 121 -315
116 -54 269 5 318 122 22 51 20 137 -3 191 -46 106 -188 163 -304 121z m138
-30 c82 -23 145 -105 145 -188 0 -80 -64 -166 -144 -191 -51 -16 -57 -16 -105
0 -100 33 -141 90 -141 198 0 55 4 70 30 105 38 53 52 61 158 91 2 1 28 -6 57
-15z"/>
<path d="M5255 621 l-30 -6 -3 -118 c-3 -118 -3 -118 20 -115 20 3 23 10 26
51 3 44 5 47 32 47 36 0 56 -20 64 -65 6 -29 11 -35 32 -35 29 0 28 13 -6 83
-18 38 -18 39 1 58 59 59 -29 124 -136 100z m102 -48 c24 -32 -29 -76 -72 -59
-18 7 -21 72 -2 80 19 8 61 -4 74 -21z"/>
<path d="M4556 715 c4 -8 11 -15 16 -15 6 0 5 6 -2 15 -7 8 -14 15 -16 15 -2
0 -1 -7 2 -15z"/>
<path d="M4510 700 c0 -5 5 -10 10 -10 6 0 10 5 10 10 0 6 -4 10 -10 10 -5 0
-10 -4 -10 -10z"/>
<path d="M2086 301 c-4 -5 0 -12 6 -14 9 -4 9 -6 -2 -6 -10 -1 -7 -6 8 -17 29
-20 35 -15 19 19 -13 28 -22 33 -31 18z"/>
</g>
</svg>
