<?xml version="1.0" encoding="UTF-8"?>
<svg width="140" height="48" viewBox="0 0 140 48" version="1.1" xmlns="http://www.w3.org/2000/svg" xmlns:xlink="http://www.w3.org/1999/xlink">
    <title>Weam Center Logo</title>
    <g fill="#8A3FFC">
        <path d="M18.528,37.944 L14.232,19.848 L10.008,37.944 L4.968,37.944 L0,14.232 L4.896,14.232 L7.848,32.76 L12.024,14.232 L16.512,14.232 L20.688,32.76 L23.64,14.232 L28.536,14.232 L23.568,37.944 L18.528,37.944 Z" />
        <path d="M33.288,37.944 L33.288,14.232 L44.352,14.232 C48.576,14.232 50.688,16.344 50.688,20.568 C50.688,23.304 49.44,25.272 46.944,26.472 C50.064,27.504 51.624,29.76 51.624,33.24 C51.624,36.168 49.512,37.944 45.288,37.944 L33.288,37.944 Z M38.184,32.904 L44.28,32.904 C45.6,32.904 46.656,32.112 46.656,30.456 C46.656,28.8 45.6,27.936 44.28,27.936 L38.184,27.936 L38.184,32.904 Z M38.184,22.896 L43.632,22.896 C44.88,22.896 45.936,22.032 45.936,20.448 C45.936,18.864 44.88,18.072 43.632,18.072 L38.184,18.072 L38.184,22.896 Z" />
        <path d="M62.544,37.944 L55.512,14.232 L60.552,14.232 L64.728,31.896 L68.88,14.232 L74.136,14.232 L69.024,37.944 L62.544,37.944 Z" />
        <path d="M85.992,38.304 C81.912,38.304 79.512,37.08 77.952,34.272 L82.776,32.4 C83.304,33.936 84.168,34.464 85.992,34.464 C87.504,34.464 88.224,33.864 88.224,32.976 C88.224,31.968 87.384,31.512 84.528,30.6 C80.76,29.376 78.312,27.6 78.312,23.952 C78.312,19.68 82.032,17.352 86.04,17.352 C89.304,17.352 91.92,18.576 93.336,21.456 L88.584,23.16 C88.2,22.056 87.408,21.192 85.992,21.192 C84.888,21.192 84.336,21.72 84.336,22.56 C84.336,23.568 85.176,23.976 87.456,24.696 C91.824,26.04 94.224,27.864 94.224,31.824 C94.224,36.504 90.384,38.304 85.992,38.304 Z" />
        <path d="M109.224,38.304 C102.36,38.304 96.384,33.624 96.384,24.288 C96.384,14.952 102.336,10.272 109.176,10.272 C113.16,10.272 117,11.496 119.4,15.048 L115.704,18.384 C114.096,16.296 111.768,15.48 109.2,15.48 C105.456,15.48 102.744,18.744 102.744,24.288 C102.744,29.832 105.456,33.096 109.2,33.096 C111.744,33.096 114.12,32.28 115.704,30.192 L119.4,33.504 C117,37.08 113.208,38.304 109.224,38.304 Z" />
        <path d="M126.84,37.944 L126.84,14.232 L140.112,14.232 L140.112,19.008 L131.712,19.008 L131.712,23.184 L139.368,23.184 L139.368,27.96 L131.712,27.96 L131.712,33.168 L140.112,33.168 L140.112,37.944 L126.84,37.944 Z" />
    </g>
</svg> 